<svg width="20" height="20" viewBox="0 0 20 20" fill="none" xmlns="http://www.w3.org/2000/svg">
<g clip-path="url(#clip0_41_76)">
<path d="M10.6543 3.57227C10.5436 3.7037 10.4329 3.83694 10.2962 3.99575L9.92025 4.43565L9.52962 4.01035C9.41406 3.8844 9.29687 3.7548 9.18294 3.62886C7.97526 2.29638 7.06543 1.29245 5.19206 1.26507C5.11881 1.26325 5.04069 1.26507 4.95931 1.26872C3.91113 1.3107 2.94434 1.74331 2.23796 2.48256C1.54134 3.21269 1.09701 4.24764 1.08236 5.50711C1.08073 5.5856 1.08236 5.66774 1.08561 5.75718C1.19792 9.27456 4.19922 12.3429 6.68783 14.8856C7.16797 15.3766 7.62858 15.8475 8.06966 16.3239L9.90234 18.3044L12.2054 15.7417C12.5765 15.3291 12.9964 14.8783 13.4456 14.3964C14.209 13.575 15.0586 12.6642 15.8496 11.746C16.4176 11.0871 16.9564 10.4245 17.4137 9.78748C17.863 9.16322 18.2308 8.56999 18.4668 8.04065C18.8542 7.1718 18.9762 6.30295 18.8932 5.49068C18.8118 4.68937 18.5303 3.94099 18.1087 3.30213C17.6807 2.65414 17.111 2.1175 16.4583 1.75061C15.7064 1.33078 14.8454 1.13182 13.9648 1.24499C12.4463 1.44213 11.6374 2.40407 10.6543 3.57227ZM9.89095 2.71072C11.014 1.37642 11.9466 0.283051 13.8411 0.0402842C14.9349 -0.100265 16.0059 0.144327 16.9385 0.670019C17.7441 1.1227 18.4473 1.78346 18.9746 2.58113C19.5068 3.38792 19.8633 4.33526 19.9674 5.35378C20.0732 6.38691 19.9202 7.48758 19.4303 8.58277C19.1536 9.20155 18.7435 9.86597 18.2536 10.5468C17.7734 11.2149 17.2135 11.9048 16.626 12.5857C15.8203 13.5221 14.9642 14.442 14.1927 15.2707C13.7419 15.7544 13.3203 16.2071 12.9655 16.6014L10.2865 19.5821L9.91048 20.0001L9.52962 19.5894L7.31608 17.1983C6.91081 16.762 6.44206 16.282 5.9554 15.7836C3.31706 13.084 0.131836 9.82946 0.00325521 5.79916C0 5.70059 0 5.59838 0 5.49251C0.0195312 3.87528 0.595703 2.53914 1.49902 1.59363C2.39421 0.657241 3.61003 0.109646 4.91862 0.0567121C5.00814 0.0530614 5.10254 0.0512361 5.20182 0.0530614C7.48698 0.0877425 8.5319 1.21031 9.89095 2.71072Z" fill="black"/>
<path d="M3.2442 2.332C3.21266 2.61589 2.90738 2.99322 2.78793 3.23656C2.60929 3.60045 2.1771 4.73822 2.31564 4.35724C2.41107 4.0948 2.48879 3.81358 2.49174 3.53274C2.50178 2.57933 2.02126 3.57685 1.90739 3.92498C1.77364 4.33387 1.72381 4.89304 1.87537 5.30983C2.10673 5.94608 2.44083 6.58578 2.66785 7.231C3.0264 8.25004 3.41133 9.58803 4.00867 10.473C4.65391 11.4289 5.25445 12.414 6.15799 13.1626C6.97182 13.837 7.74908 14.5502 8.41537 15.372C8.71168 15.7374 9.56524 17.0239 9.94431 16.957C10.1736 16.9165 10.459 16.0686 10.6247 15.8603C11.2777 15.0394 12.0236 14.393 12.8981 13.819C14.7605 12.5968 16.1923 10.5869 17.0407 8.56382C17.6298 7.15885 18.4419 5.46831 17.8692 3.94099C17.113 1.92453 15.3648 1.60466 13.5945 2.58816C12.7142 3.07724 11.8567 3.36991 11.2251 4.22116C10.584 5.08526 10.1557 6.10413 9.48403 6.93082C9.36163 7.08146 8.72535 5.00784 8.64751 4.70946C8.43606 3.89886 8.31421 3.00259 7.53483 2.52012C5.97379 1.55376 4.32505 1.51877 4.12474 3.78889C4.03322 4.8262 4.1863 5.8614 4.48496 6.85477C4.62882 7.33323 5.12381 8.49529 5.40153 7.41912C5.62573 6.55034 5.97327 5.00803 5.64968 4.14511C5.354 3.35663 5.38491 5.82205 5.39752 5.9262C5.59003 7.51577 6.20423 9.04667 7.19863 10.3049C7.87839 11.165 8.09358 10.3277 8.14321 9.61646C8.19582 8.86237 8.19165 6.06857 6.86242 6.23039C5.18844 6.43418 5.98042 9.23504 6.35411 10.0487C6.65899 10.7126 7.79619 12.68 8.51944 11.2335C8.87239 10.5275 8.79993 9.54003 8.74357 8.78395C8.73697 8.6953 8.59013 6.66746 8.15922 7.14295C7.7681 7.57453 7.92345 8.52498 7.93908 9.0201C7.97748 10.2361 8.08995 11.4691 8.59148 12.5943C8.80748 13.0789 9.25332 13.8679 9.86826 13.9191C10.6486 13.9841 11.003 12.6558 11.1611 12.13C11.4869 11.0461 11.6633 9.89918 11.6974 8.76794C11.7135 8.23396 11.7361 6.86341 10.9409 7.81936C10.0989 8.83155 9.92821 10.4628 10.4566 11.6657C10.9906 12.8812 12.008 11.3482 12.3298 10.8452C13.2455 9.41353 13.8422 7.68015 13.9227 5.97423C13.9395 5.61912 13.66 4.18261 13.1303 5.1097C12.6692 5.91665 12.1251 9.01369 13.4585 9.44036C14.7081 9.84023 15.467 5.67426 15.5718 5.06968C15.6213 4.78357 15.8991 3.64652 15.4397 3.4727C14.8926 3.26568 14.6416 5.22221 14.6112 5.51795C14.5803 5.81812 14.7125 8.38451 15.5197 7.49917C15.9952 6.97763 15.9974 6.01243 15.8519 5.35786" stroke="black" stroke-width="3" stroke-linecap="round"/>
</g>
<defs>
<clipPath id="clip0_41_76">
<rect width="20" height="20" fill="white"/>
</clipPath>
</defs>
</svg>
